<svg width="24" height="24" viewBox="0 0 24 24" fill="none" xmlns="http://www.w3.org/2000/svg">
<g clip-path="url(#clip0_582_1869)">
<path d="M13.2501 14.318C14.2298 13.7077 14.9842 12.795 15.399 11.7179C15.8139 10.6407 15.8666 9.45779 15.5493 8.34801C15.2319 7.23823 14.5618 6.262 13.6402 5.56701C12.7186 4.87203 11.5957 4.49609 10.4415 4.49609C9.28722 4.49609 8.16437 4.87203 7.24279 5.56701C6.32121 6.262 5.65105 7.23823 5.33371 8.34801C5.01636 9.45779 5.0691 10.6407 5.48393 11.7179C5.89877 12.795 6.65313 13.7077 7.63289 14.318C6.01961 14.8461 4.56805 15.8328 3.40086 17.2219C3.34617 17.2844 3.3045 17.3572 3.27828 17.4361C3.25206 17.5149 3.24182 17.5981 3.24816 17.681C3.2545 17.7638 3.27728 17.8446 3.31519 17.9185C3.35309 17.9924 3.40536 18.058 3.46892 18.1115C3.53249 18.165 3.60608 18.2053 3.68539 18.23C3.7647 18.2547 3.84815 18.2634 3.93085 18.2555C4.01354 18.2476 4.09384 18.2232 4.16703 18.1839C4.24022 18.1446 4.30484 18.0911 4.35711 18.0266C5.92586 16.1547 8.0868 15.1242 10.4376 15.1242C12.7884 15.1242 14.9493 16.1547 16.5212 18.0266C16.6279 18.1536 16.7807 18.233 16.9459 18.2474C17.1112 18.2617 17.2754 18.2098 17.4024 18.1031C17.5294 17.9964 17.6089 17.8436 17.6232 17.6784C17.6376 17.5131 17.5857 17.3489 17.479 17.2219C16.311 15.8328 14.8595 14.8461 13.2501 14.318ZM6.37508 9.81172C6.37508 9.00823 6.61334 8.22279 7.05973 7.55471C7.50612 6.88664 8.1406 6.36594 8.88293 6.05846C9.62525 5.75098 10.4421 5.67053 11.2301 5.82728C12.0182 5.98403 12.742 6.37095 13.3102 6.9391C13.8783 7.50725 14.2653 8.23112 14.422 9.01916C14.5788 9.80721 14.4983 10.624 14.1908 11.3664C13.8834 12.1087 13.3627 12.7432 12.6946 13.1896C12.0265 13.636 11.2411 13.8742 10.4376 13.8742C9.36052 13.873 8.32792 13.4446 7.56633 12.683C6.80473 11.9214 6.37632 10.8888 6.37508 9.81172ZM21.7071 13.1766L21.343 12.9664C21.3858 12.7403 21.3858 12.5082 21.343 12.282L21.7071 12.0719C21.7782 12.0308 21.8405 11.9762 21.8905 11.9111C21.9405 11.846 21.9772 11.7716 21.9984 11.6923C22.0197 11.613 22.0251 11.5303 22.0144 11.4489C22.0037 11.3676 21.9771 11.2891 21.936 11.218C21.895 11.1469 21.8403 11.0846 21.7752 11.0346C21.7101 10.9846 21.6358 10.9479 21.5565 10.9267C21.4772 10.9054 21.3945 10.9 21.3131 10.9107C21.2317 10.9214 21.1532 10.948 21.0821 10.9891L20.7173 11.2C20.5427 11.0502 20.3419 10.9339 20.1251 10.857V10.4367C20.1251 10.271 20.0592 10.112 19.942 9.99478C19.8248 9.87757 19.6658 9.81172 19.5001 9.81172C19.3343 9.81172 19.1753 9.87757 19.0581 9.99478C18.9409 10.112 18.8751 10.271 18.8751 10.4367V10.857C18.6583 10.9339 18.4575 11.0502 18.2829 11.2L17.918 10.9891C17.8469 10.948 17.7685 10.9214 17.6871 10.9107C17.6057 10.9 17.523 10.9054 17.4437 10.9267C17.3644 10.9479 17.2901 10.9846 17.2249 11.0346C17.1598 11.0846 17.1052 11.1469 17.0641 11.218C17.0231 11.2891 16.9965 11.3676 16.9858 11.4489C16.9751 11.5303 16.9805 11.613 17.0017 11.6923C17.023 11.7716 17.0597 11.846 17.1096 11.9111C17.1596 11.9762 17.2219 12.0308 17.293 12.0719L17.6571 12.282C17.6144 12.5082 17.6144 12.7403 17.6571 12.9664L17.293 13.1766C17.2219 13.2176 17.1596 13.2722 17.1096 13.3374C17.0597 13.4025 17.023 13.4768 17.0017 13.5561C16.9805 13.6354 16.9751 13.7181 16.9858 13.7995C16.9965 13.8809 17.0231 13.9594 17.0641 14.0305C17.1052 14.1016 17.1598 14.1639 17.2249 14.2139C17.2901 14.2639 17.3644 14.3005 17.4437 14.3218C17.523 14.343 17.6057 14.3485 17.6871 14.3378C17.7685 14.327 17.8469 14.3004 17.918 14.2594L18.2829 14.0484C18.4575 14.1982 18.6583 14.3145 18.8751 14.3914V14.8117C18.8751 14.9775 18.9409 15.1365 19.0581 15.2537C19.1753 15.3709 19.3343 15.4367 19.5001 15.4367C19.6658 15.4367 19.8248 15.3709 19.942 15.2537C20.0592 15.1365 20.1251 14.9775 20.1251 14.8117V14.3914C20.3419 14.3145 20.5427 14.1982 20.7173 14.0484L21.0821 14.2594C21.177 14.3145 21.2849 14.3433 21.3946 14.343C21.5322 14.343 21.666 14.2976 21.7752 14.2139C21.8844 14.1301 21.9629 14.0127 21.9986 13.8797C22.0342 13.7468 22.0249 13.6058 21.9722 13.4787C21.9195 13.3515 21.8263 13.2453 21.7071 13.1766ZM18.8751 12.6242C18.8751 12.5006 18.9117 12.3798 18.9804 12.277C19.0491 12.1742 19.1467 12.0941 19.2609 12.0468C19.3751 11.9995 19.5008 11.9871 19.622 12.0112C19.7432 12.0353 19.8546 12.0949 19.942 12.1823C20.0294 12.2697 20.089 12.381 20.1131 12.5023C20.1372 12.6235 20.1248 12.7492 20.0775 12.8634C20.0302 12.9776 19.9501 13.0752 19.8473 13.1439C19.7445 13.2126 19.6237 13.2492 19.5001 13.2492C19.3343 13.2492 19.1753 13.1834 19.0581 13.0662C18.9409 12.949 18.8751 12.79 18.8751 12.6242Z" fill="#2F6BFF"/>
</g>
<defs>
<clipPath id="clip0_582_1869">
<rect width="20" height="20" fill="white" transform="translate(2 2)"/>
</clipPath>
</defs>
</svg>
