<svg width="13" height="20" viewBox="0 0 13 20" fill="none" xmlns="http://www.w3.org/2000/svg">
<path d="M10.8333 0H2.16667C1.59203 0 1.04093 0.225765 0.634602 0.627628C0.228273 1.02949 0 1.57454 0 2.14286V17.8571C0 18.4255 0.228273 18.9705 0.634602 19.3724C1.04093 19.7742 1.59203 20 2.16667 20H10.8333C11.408 20 11.9591 19.7742 12.3654 19.3724C12.7717 18.9705 13 18.4255 13 17.8571V2.14286C13 1.57454 12.7717 1.02949 12.3654 0.627628C11.9591 0.225765 11.408 0 10.8333 0ZM1.44444 4.28571H11.5556V15.7143H1.44444V4.28571ZM2.16667 1.42857H10.8333C11.0249 1.42857 11.2086 1.50383 11.344 1.63778C11.4795 1.77174 11.5556 1.95342 11.5556 2.14286V2.85714H1.44444V2.14286C1.44444 1.95342 1.52054 1.77174 1.65598 1.63778C1.79142 1.50383 1.97512 1.42857 2.16667 1.42857ZM10.8333 18.5714H2.16667C1.97512 18.5714 1.79142 18.4962 1.65598 18.3622C1.52054 18.2283 1.44444 18.0466 1.44444 17.8571V17.1429H11.5556V17.8571C11.5556 18.0466 11.4795 18.2283 11.344 18.3622C11.2086 18.4962 11.0249 18.5714 10.8333 18.5714Z" fill="#2F6BFF"/>
</svg>
