<svg width="22" height="22" viewBox="0 0 22 22" fill="none" xmlns="http://www.w3.org/2000/svg">
<path d="M20.6249 4.8125V10.3125C20.6249 10.4948 20.5525 10.6697 20.4235 10.7986C20.2946 10.9276 20.1197 11 19.9374 11C19.7551 11 19.5802 10.9276 19.4513 10.7986C19.3223 10.6697 19.2499 10.4948 19.2499 10.3125V6.47195L12.1738 13.5489C12.11 13.6128 12.0341 13.6635 11.9507 13.6981C11.8672 13.7327 11.7777 13.7505 11.6874 13.7505C11.597 13.7505 11.5076 13.7327 11.4241 13.6981C11.3407 13.6635 11.2648 13.6128 11.201 13.5489L8.24989 10.597L2.5488 16.2989C2.4198 16.4279 2.24483 16.5004 2.06239 16.5004C1.87996 16.5004 1.70499 16.4279 1.57599 16.2989C1.44698 16.1699 1.37451 15.9949 1.37451 15.8125C1.37451 15.6301 1.44698 15.4551 1.57599 15.3261L7.76349 9.13859C7.82734 9.07467 7.90316 9.02396 7.98662 8.98937C8.07008 8.95477 8.15955 8.93696 8.24989 8.93696C8.34024 8.93696 8.4297 8.95477 8.51317 8.98937C8.59663 9.02396 8.67245 9.07467 8.7363 9.13859L11.6874 12.0905L18.2779 5.5H14.4374C14.2551 5.5 14.0802 5.42757 13.9513 5.29864C13.8223 5.1697 13.7499 4.99484 13.7499 4.8125C13.7499 4.63016 13.8223 4.4553 13.9513 4.32636C14.0802 4.19743 14.2551 4.125 14.4374 4.125H19.9374C20.1197 4.125 20.2946 4.19743 20.4235 4.32636C20.5525 4.4553 20.6249 4.63016 20.6249 4.8125Z" fill="#2F6BFF"/>
</svg>
