<svg width="17" height="17" viewBox="0 0 17 17" fill="none" xmlns="http://www.w3.org/2000/svg">
<path d="M15 1.875H8.75V0.625C8.75 0.45924 8.68415 0.300269 8.56694 0.183058C8.44973 0.065848 8.29076 0 8.125 0C7.95924 0 7.80027 0.065848 7.68306 0.183058C7.56585 0.300269 7.5 0.45924 7.5 0.625V1.875H1.25C0.918479 1.875 0.600537 2.0067 0.366116 2.24112C0.131696 2.47554 0 2.79348 0 3.125V12.5C0 12.8315 0.131696 13.1495 0.366116 13.3839C0.600537 13.6183 0.918479 13.75 1.25 13.75H4.325L2.63672 15.8594C2.53312 15.9889 2.48521 16.1542 2.50352 16.3191C2.52183 16.4839 2.60487 16.6347 2.73438 16.7383C2.86388 16.8419 3.02923 16.8898 3.19405 16.8715C3.35888 16.8532 3.50968 16.7701 3.61328 16.6406L5.925 13.75H10.325L12.6367 16.6406C12.688 16.7048 12.7514 16.7581 12.8234 16.7978C12.8953 16.8374 12.9743 16.8624 13.0559 16.8715C13.1376 16.8806 13.2202 16.8735 13.299 16.8506C13.3779 16.8277 13.4515 16.7896 13.5156 16.7383C13.5797 16.687 13.6331 16.6236 13.6727 16.5516C13.7124 16.4797 13.7374 16.4007 13.7465 16.3191C13.7555 16.2374 13.7485 16.1548 13.7256 16.076C13.7027 15.9971 13.6646 15.9235 13.6133 15.8594L11.925 13.75H15C15.3315 13.75 15.6495 13.6183 15.8839 13.3839C16.1183 13.1495 16.25 12.8315 16.25 12.5V3.125C16.25 2.79348 16.1183 2.47554 15.8839 2.24112C15.6495 2.0067 15.3315 1.875 15 1.875ZM15 12.5H1.25V3.125H15V12.5ZM6.25 8.125V10C6.25 10.1658 6.18415 10.3247 6.06694 10.4419C5.94973 10.5592 5.79076 10.625 5.625 10.625C5.45924 10.625 5.30027 10.5592 5.18306 10.4419C5.06585 10.3247 5 10.1658 5 10V8.125C5 7.95924 5.06585 7.80027 5.18306 7.68306C5.30027 7.56585 5.45924 7.5 5.625 7.5C5.79076 7.5 5.94973 7.56585 6.06694 7.68306C6.18415 7.80027 6.25 7.95924 6.25 8.125ZM8.75 6.875V10C8.75 10.1658 8.68415 10.3247 8.56694 10.4419C8.44973 10.5592 8.29076 10.625 8.125 10.625C7.95924 10.625 7.80027 10.5592 7.68306 10.4419C7.56585 10.3247 7.5 10.1658 7.5 10V6.875C7.5 6.70924 7.56585 6.55027 7.68306 6.43306C7.80027 6.31585 7.95924 6.25 8.125 6.25C8.29076 6.25 8.44973 6.31585 8.56694 6.43306C8.68415 6.55027 8.75 6.70924 8.75 6.875ZM11.25 5.625V10C11.25 10.1658 11.1842 10.3247 11.0669 10.4419C10.9497 10.5592 10.7908 10.625 10.625 10.625C10.4592 10.625 10.3003 10.5592 10.1831 10.4419C10.0658 10.3247 10 10.1658 10 10V5.625C10 5.45924 10.0658 5.30027 10.1831 5.18306C10.3003 5.06585 10.4592 5 10.625 5C10.7908 5 10.9497 5.06585 11.0669 5.18306C11.1842 5.30027 11.25 5.45924 11.25 5.625Z" fill="#2F6BFF"/>
</svg>
