<svg width="14" height="19" viewBox="0 0 14 19" fill="none" xmlns="http://www.w3.org/2000/svg">
<path d="M14 6.96912C14.0007 5.79536 13.7033 4.64047 13.1353 3.6117C12.5674 2.58293 11.7473 1.71366 10.7514 1.08463C9.75543 0.455603 8.61586 0.0872134 7.43852 0.0136821C6.26118 -0.0598492 5.08426 0.163863 4.01707 0.664039C2.94988 1.16422 2.02704 1.92463 1.33426 2.87466C0.641487 3.82469 0.201244 4.93351 0.0544271 6.09814C-0.0923898 7.26277 0.0589812 8.44543 0.49448 9.53628C0.929979 10.6271 1.63548 11.5908 2.54545 12.3377V18.3664C2.54538 18.4744 2.57306 18.5806 2.62586 18.6749C2.67867 18.7692 2.75485 18.8486 2.84715 18.9054C2.93946 18.9622 3.04483 18.9945 3.15325 18.9994C3.26167 19.0042 3.36954 18.9814 3.46659 18.9331L7 17.1792L10.5342 18.937C10.6228 18.9792 10.72 19.0006 10.8182 18.9995C10.987 18.9995 11.1488 18.9328 11.2682 18.8141C11.3875 18.6953 11.4545 18.5343 11.4545 18.3664V12.3377C12.2507 11.6852 12.8919 10.8655 13.332 9.93727C13.7721 9.00906 14.0002 7.99543 14 6.96912ZM1.27273 6.96912C1.27273 5.84204 1.60863 4.74027 2.23795 3.80313C2.86727 2.866 3.76175 2.13559 4.80827 1.70428C5.85479 1.27296 7.00635 1.16011 8.11734 1.37999C9.22832 1.59988 10.2488 2.14262 11.0498 2.93958C11.8508 3.73655 12.3962 4.75195 12.6172 5.85737C12.8382 6.9628 12.7248 8.1086 12.2913 9.14989C11.8578 10.1912 11.1237 11.0812 10.1819 11.7074C9.24006 12.3335 8.13275 12.6677 7 12.6677C5.48155 12.6661 4.02577 12.0651 2.95207 10.9968C1.87836 9.92847 1.27441 8.47997 1.27273 6.96912ZM10.1818 17.3422L7.28398 15.9009C7.19557 15.8569 7.09806 15.834 6.9992 15.834C6.90034 15.834 6.80284 15.8569 6.71443 15.9009L3.81818 17.3422V13.1719C4.80324 13.6729 5.89373 13.9341 7 13.9341C8.10627 13.9341 9.19676 13.6729 10.1818 13.1719V17.3422ZM7 11.4014C7.88102 11.4014 8.74227 11.1414 9.47481 10.6544C10.2074 10.1674 10.7783 9.47516 11.1155 8.66527C11.4526 7.85538 11.5408 6.9642 11.369 6.10443C11.1971 5.24465 10.7728 4.4549 10.1498 3.83504C9.52686 3.21517 8.73314 2.79304 7.86904 2.62202C7.00494 2.451 6.10928 2.53878 5.29532 2.87424C4.48136 3.20971 3.78565 3.77781 3.29618 4.50669C2.80671 5.23557 2.54545 6.0925 2.54545 6.96912C2.54672 8.14424 3.01644 9.27088 3.85156 10.1018C4.68667 10.9328 5.81897 11.4001 7 11.4014ZM7 3.80322C7.6293 3.80322 8.24448 3.9889 8.76772 4.33677C9.29097 4.68464 9.69879 5.17909 9.93962 5.75758C10.1804 6.33607 10.2435 6.97263 10.1207 7.58676C9.99791 8.20088 9.69487 8.76499 9.24988 9.20775C8.8049 9.65051 8.23795 9.95203 7.62074 10.0742C7.00353 10.1963 6.36377 10.1337 5.78237 9.89403C5.20097 9.65441 4.70404 9.24863 4.35441 8.728C4.00479 8.20737 3.81818 7.59528 3.81818 6.96912C3.81818 6.12947 4.15341 5.32421 4.75011 4.73049C5.34682 4.13677 6.15613 3.80322 7 3.80322Z" fill="#2F6BFF"/>
</svg>
