<svg width="17" height="18" viewBox="0 0 17 18" fill="none" xmlns="http://www.w3.org/2000/svg">
<path d="M17 1.38462V16.6154C17 16.9826 16.8507 17.3348 16.5851 17.5945C16.3194 17.8541 15.9591 18 15.5833 18C15.2076 18 14.8473 17.8541 14.5816 17.5945C14.3159 17.3348 14.1667 16.9826 14.1667 16.6154V1.38462C14.1667 1.01739 14.3159 0.66521 14.5816 0.405545C14.8473 0.145879 15.2076 0 15.5833 0C15.9591 0 16.3194 0.145879 16.5851 0.405545C16.8507 0.66521 17 1.01739 17 1.38462ZM8.5 6.92308C8.12428 6.92308 7.76394 7.06895 7.49827 7.32862C7.23259 7.58829 7.08333 7.94047 7.08333 8.30769V16.6154C7.08333 16.9826 7.23259 17.3348 7.49827 17.5945C7.76394 17.8541 8.12428 18 8.5 18C8.87572 18 9.23606 17.8541 9.50173 17.5945C9.76741 17.3348 9.91667 16.9826 9.91667 16.6154V8.30769C9.91667 7.94047 9.76741 7.58829 9.50173 7.32862C9.23606 7.06895 8.87572 6.92308 8.5 6.92308ZM1.41667 13.8462C1.04094 13.8462 0.680609 13.992 0.414932 14.2517C0.149256 14.5114 0 14.8635 0 15.2308V16.6154C0 16.9826 0.149256 17.3348 0.414932 17.5945C0.680609 17.8541 1.04094 18 1.41667 18C1.79239 18 2.15272 17.8541 2.4184 17.5945C2.68408 17.3348 2.83333 16.9826 2.83333 16.6154V15.2308C2.83333 14.8635 2.68408 14.5114 2.4184 14.2517C2.15272 13.992 1.79239 13.8462 1.41667 13.8462Z" fill="#2F6BFF"/>
</svg>
