<svg width="200" height="39" viewBox="0 0 200 39" fill="none" xmlns="http://www.w3.org/2000/svg">
<g clip-path="url(#clip0_526_207)">
<path d="M178.687 7.49325C178.237 8.58874 176.352 9.35453 175.356 10.3479C173.051 12.6431 173.668 16.89 176.041 17.7047C178.229 18.4452 176.161 14.4964 178.229 12.7795C180.42 11.1065 186.069 14.0295 181.542 17.8403C180.478 18.6183 180.323 18.8758 179.631 19.5648C175.923 23.2557 181.936 27.4388 186.34 26.9043C190.24 26.4307 191.31 23.8821 191.85 20.2487C192.341 16.9419 191.678 15.7856 192.196 13.381C193.854 8.82768 199.203 12.7039 199.959 14.9143C199.974 14.6623 200 14.4145 200 14.1561C200 6.34541 193.632 0 185.775 0C181.277 0 177.274 2.08756 174.671 5.33435C177.674 3.46842 179.621 5.24823 178.687 7.49325Z" fill="url(#paint0_radial_526_207)"/>
<path d="M191.639 9.07601C193 10.0487 194.632 10.1179 195.288 9.20814C195.947 8.30093 195.376 6.77273 194.015 5.80135C192.656 4.819 191.017 4.75441 190.364 5.66035C189.71 6.5663 190.283 8.09872 191.639 9.07601ZM192.196 13.3807C191.678 15.7853 192.341 16.9416 191.85 20.2483C191.31 23.8818 190.24 26.4304 186.34 26.904C181.936 27.4385 175.923 23.2553 179.631 19.5644C180.323 18.8755 180.478 18.618 181.542 17.8399C186.069 14.0291 180.42 11.1066 178.229 12.7791C176.161 14.4961 178.229 18.4449 176.041 17.7044C173.668 16.8897 173.051 12.6428 175.356 10.3475C176.352 9.35421 178.237 8.58842 178.687 7.4925C179.621 5.24749 177.674 3.4681 174.672 5.33403C172.728 7.75213 171.56 10.8187 171.56 14.1558C171.56 21.9749 177.923 28.3149 185.775 28.3149C193.378 28.3149 199.563 22.3777 199.959 14.914C199.203 12.7036 193.855 8.82736 192.196 13.3807Z" fill="url(#paint1_radial_526_207)"/>
<path d="M12.5243 16.9785C9.50811 16.9785 7.12197 17.5805 5.43369 18.7727C3.92857 19.8184 3.17135 21.1536 3.17135 22.7363C3.17135 24.2248 3.92857 25.5107 5.43369 26.5407C7.11518 27.7143 9.50387 28.3053 12.5239 28.3053C15.5006 28.3053 17.8761 27.7143 19.5941 26.5407C21.1043 25.5107 21.8704 24.2252 21.8704 22.7363C21.8704 21.1532 21.1043 19.8184 19.5937 18.7727C17.8732 17.5805 15.4972 16.9785 12.5239 16.9785H12.5243ZM47.2841 17.5366V31.9371H51.8304V17.5366H47.2841ZM102.73 17.6282V38.4759H107.201V25.002H110.765V22.8013H107.201V17.6282H102.73ZM28.1822 17.9127V19.9724H33.3055L33.2945 20.1202C32.8213 25.6846 28.6202 26.3533 27.8511 26.4293V28.8145C32.9914 28.7596 35.2049 25.5605 36.1568 22.8672L36.2903 22.5079L36.4162 22.8672C37.3634 25.5605 39.5846 28.7596 44.722 28.8145V26.4293C43.9516 26.3533 39.7512 25.685 39.2747 20.1202L39.2654 19.9724H44.4434V17.9127H28.1822ZM57.627 17.9127V26.618C57.6333 27.9571 58.6861 29.0775 60.0343 29.1577H78.6393V27.1052H62.0117V24.3379H77.7493V22.288H62.0113V19.9598H78.6397V17.9127H57.627ZM84.8476 17.9127V19.9197H89.2714V20.1075C89.2714 29.4625 84.8692 31.108 84.0492 31.3318V33.4518C91.0449 33.4518 92.798 22.8469 92.798 22.8469H92.8005C92.8005 22.8469 94.5494 33.4514 101.547 33.4514V31.3322C100.728 31.1076 96.3297 29.4625 96.3297 20.1075V19.9197H100.748V17.9127H84.8476ZM115.65 17.9127V20.154H122.475L122.378 20.3477C120.78 23.44 115.928 23.6123 115.133 23.6237V25.7277C121.843 25.6964 124.699 23.5979 125.907 21.8274L126.02 21.6644L126.13 21.8274C127.335 23.5979 130.193 25.6964 136.898 25.7277V23.6232C136.11 23.6123 131.249 23.44 129.662 20.3473L129.561 20.154H136.392V17.9127H115.65ZM142.362 17.9127V19.9239H153.286V27.3462H141.274V29.3265H147.862V31.8426H144.314V36.0599H144.33C144.377 37.3547 145.376 38.3674 146.659 38.4755H165.17V36.4614H148.69V32.7903H152.218V29.3265H158.513V27.3462H157.632V20.2295C157.526 18.9643 156.481 17.9634 155.196 17.9127H142.362ZM160.7 17.9423V30.2029H155.856V32.2229H160.7V33.6355H165.17V17.9423H160.7ZM12.5243 18.8314C14.0608 18.8314 15.306 19.2185 16.2256 19.9796C17.0905 20.6783 17.5242 21.6104 17.5242 22.7363C17.5242 23.8225 17.0909 24.7086 16.2226 25.3705C15.317 26.0831 14.0748 26.4512 12.5243 26.4512C10.9598 26.4512 9.70229 26.0831 8.79753 25.3705C7.95381 24.7031 7.52178 23.8178 7.52178 22.7363C7.52178 21.6104 7.95381 20.6867 8.7971 19.9796C9.69424 19.2185 10.9577 18.8314 12.5243 18.8314ZM114.054 27.3454V29.3949H137.986V27.3454H114.054ZM0 29.8791V31.9008H4.71759V38.4755H9.08583V31.9008H15.7423V38.4755H20.027V31.9008H24.7713V29.8787L0 29.8791ZM126.02 30.3178C122.858 30.3178 120.355 30.7851 118.575 31.7088C117.011 32.5113 116.224 33.5304 116.224 34.7297C116.224 35.8737 117.011 36.8447 118.575 37.6383C120.353 38.5464 122.852 39.0006 126.02 39.0006C129.144 39.0006 131.646 38.5464 133.439 37.6388C135.019 36.8451 135.819 35.8742 135.819 34.7297C135.819 33.5304 135.012 32.5113 133.439 31.7088C131.64 30.7851 129.138 30.3178 126.02 30.3178ZM30.6124 30.8328V36.1431C30.651 36.7318 30.8965 37.2882 31.3059 37.7147C31.7153 38.1412 32.2625 38.4106 32.8514 38.4755H51.8876V36.4183H34.9077V30.8332L30.6124 30.8328ZM55.6712 31.4648V33.5143H65.8771V38.4759H70.376V33.5143H80.4645V31.4648H55.6712ZM126.02 31.8645C127.475 31.8645 128.656 32.1389 129.534 32.6958C130.369 33.2129 130.781 33.8947 130.781 34.7297C130.781 35.5322 130.37 36.1853 129.529 36.6788C128.673 37.1955 127.49 37.4632 126.02 37.4632C124.514 37.4632 123.354 37.2056 122.485 36.6695C121.678 36.1823 121.257 35.5322 121.257 34.7297C121.257 33.8951 121.678 33.2129 122.485 32.6958C123.343 32.1389 124.535 31.8645 126.02 31.8645Z" fill="#BF1E24"/>
</g>
<defs>
<radialGradient id="paint0_radial_526_207" cx="0" cy="0" r="1" gradientUnits="userSpaceOnUse" gradientTransform="translate(189.126 8.05218) scale(18.8886 18.8125)">
<stop stop-color="#EF4130"/>
<stop offset="0.157822" stop-color="#EF4130"/>
<stop offset="0.6" stop-color="#BF1E24"/>
<stop offset="1" stop-color="#7A1214"/>
</radialGradient>
<radialGradient id="paint1_radial_526_207" cx="0" cy="0" r="1" gradientUnits="userSpaceOnUse" gradientTransform="translate(190.576 7.24976) scale(18.4286 18.3494)">
<stop stop-color="#E7E8E9"/>
<stop offset="0.005618" stop-color="#E7E8E9"/>
<stop offset="1" stop-color="#8A9297"/>
</radialGradient>
<clipPath id="clip0_526_207">
<rect width="200" height="39" fill="white"/>
</clipPath>
</defs>
</svg>
