<svg width="200" height="54" viewBox="0 0 200 54" fill="none" xmlns="http://www.w3.org/2000/svg">
<path d="M114.333 37.2938H122C120.167 38.9813 119.167 41.0063 119.167 43.3688C119.167 46.2375 120.333 48.7687 122.667 50.625C124.833 52.4813 127.5 53.325 130.5 53.325C133.5 53.325 136 52.4813 138.167 50.625C140.5 48.6 141.667 46.2375 141.667 43.3688C141.667 41.0063 140.667 38.9813 138.833 37.2938H146.5V32.9062H114.333V37.2938ZM126.5 39.3187C127.667 38.3062 129 37.8 130.5 37.8C132.75 37.8 133.333 38.3062 134.5 39.3187C135.667 40.3312 136.333 41.6813 136.333 43.2C136.333 44.7188 135.667 46.0687 134.5 47.0812C133.333 48.0937 132 48.6 130.5 48.6C128.25 48.6 127.5 48.0937 126.5 47.0812C125.333 46.0687 124.667 44.7188 124.667 43.2C124.833 41.85 125.333 40.5 126.5 39.3187ZM130.667 25.9875C132.833 28.6875 136.5 30.375 140.5 30.375H144.667V26.325H140.5C137.667 26.325 135.333 24.975 134.333 22.7812H145V18.5625H116.167V22.7812H126.833C125.667 24.8063 123.333 26.325 120.667 26.325H116.5V30.375H120.667C124.833 30.5438 128.5 28.6875 130.667 25.9875ZM173 18.7313V29.025C171.833 29.7 170.667 30.0375 169.667 30.2062V20.0812C169.667 19.575 169.167 19.0688 168.667 19.0688H150.333V22.7812H164.5V30.7125H149.5V34.9313H159.333V42.8625H163.667V34.9313H166.667C167.667 34.9313 170.167 34.7625 172.833 33.75V37.125H167.333V41.175H172.833V43.3688H178V18.7313H173Z" fill="#9EA3A6"/>
<path d="M156.833 40.332H151.333V48.9383C151.333 50.2883 152.5 51.4695 153.833 51.4695H178.167V47.2508H156.833V40.332Z" fill="#9EA3A6"/>
<path d="M83.8333 34.257C86.5 34.257 88 34.5945 88.1667 36.4508C88.1667 37.4633 87.5 38.6445 86.8333 39.1508C85.1667 40.5008 83.6667 40.5008 76 40.5008H37.6667L45 9.11328H32.1667C31.3333 9.11328 31 9.28203 30.6667 10.4633L23.6667 39.9945C22.3333 45.9008 25.3333 51.132 32 51.132H49.6667C54.1667 51.132 60 46.2383 62.5 41.682C62.6667 41.5133 62.6667 41.3445 62.8333 41.007C62.5 42.6945 61.1667 48.432 60.8333 49.4445C60.5 50.6258 61.1667 51.132 61.8333 51.132H80.8333C96.8333 51.132 103.167 43.3695 103.667 34.0883C104 28.857 100.667 25.482 91.5 25.482H84.5C82 25.482 79.3333 24.6383 79.3333 22.6133C79.3333 20.5883 82.1667 18.732 86 18.732H103.167L105 11.307C105.333 9.61953 104.833 9.28203 103.667 9.28203H82.1667C69.8333 9.28203 64.1667 17.7195 64.1667 23.6258C64.1667 29.532 69 34.257 81.1667 34.257H83.8333Z" fill="#003378"/>
<path d="M92.1667 4.21875H126.5L108.833 13.3313C108.833 13.3313 109.5 10.2937 109.833 9.45C110 8.4375 109.833 7.7625 108.5 7.59375C107 7.25625 92.1667 4.21875 92.1667 4.21875Z" fill="#E6003E"/>
</svg>
