<svg width="200" height="35" viewBox="0 0 200 35" fill="none" xmlns="http://www.w3.org/2000/svg">
<g clip-path="url(#clip0_526_221)">
<path d="M0.209012 17.9788C0.207058 17.9151 0.217771 17.8516 0.240517 17.7921C0.263262 17.7327 0.297577 17.6785 0.341427 17.6327C0.385278 17.5869 0.43777 17.5505 0.495793 17.5256C0.553816 17.5007 0.616188 17.4878 0.679212 17.4878L9.60221 17.4317C9.86781 17.4263 10.0806 17.6405 10.0806 17.9136C10.0878 17.9725 10.0742 18.0379 10.0478 18.0978L5.65681 29.1448C5.58681 29.3139 5.41881 29.4428 5.21941 29.4428C5.08861 29.4428 4.97021 29.3839 4.88281 29.3067C4.88281 29.2994 4.86941 29.2955 4.86941 29.2862C2.10421 26.3207 0.355412 22.3673 0.200012 18C0.200012 17.9917 0.209012 17.9845 0.209012 17.9845V17.9788Z" fill="url(#paint0_linear_526_221)"/>
<path d="M9.6566 32.3893L14.9496 19.076C14.9558 19.0705 14.9558 19.0632 14.9624 19.0555C15.3308 18.0842 16.2746 17.3832 17.3718 17.379C18.4042 17.3715 19.2952 17.9722 19.726 18.8498L25.2928 32.2845V32.29C25.3146 32.345 25.3284 32.4077 25.3284 32.4739C25.3284 32.6505 25.2366 32.8087 25.0936 32.8913C25.0866 32.9006 25.0818 32.9006 25.0736 32.9042C22.7966 34.0687 20.2108 34.7254 17.4872 34.7548C14.7568 34.7732 12.1786 34.1458 9.8802 33.0108H9.8748C9.79768 32.9699 9.73294 32.9087 9.68748 32.8335C9.64202 32.7584 9.61752 32.6722 9.6166 32.5841C9.61494 32.5221 9.62505 32.4603 9.6464 32.4021C9.6466 32.4023 9.6566 32.3968 9.6566 32.3893Z" fill="url(#paint1_linear_526_221)"/>
<path d="M24.6938 17.9988V17.9832C24.6684 17.9254 24.661 17.8673 24.6548 17.8095C24.6548 17.541 24.8684 17.3182 25.1322 17.3182L34.058 17.2539C34.1835 17.2538 34.3039 17.3039 34.393 17.3933C34.4821 17.4828 34.5325 17.6042 34.5334 17.7312C34.54 17.7366 34.54 17.7433 34.54 17.7433C34.4518 22.1179 32.7596 26.1045 30.0354 29.1138C30.028 29.1138 30.028 29.1213 30.028 29.1213C29.9362 29.2059 29.8162 29.2723 29.6808 29.2723C29.5865 29.2721 29.4943 29.2437 29.416 29.1907C29.3376 29.1376 29.2766 29.0622 29.2406 28.974L24.6938 17.9988Z" fill="url(#paint2_linear_526_221)"/>
<path d="M33.1382 12.2947L22.6878 12.3681H22.646C22.5589 12.3613 22.4754 12.3301 22.4049 12.2779C22.3344 12.2258 22.2796 12.1548 22.2468 12.0729L21.4074 10.0411C20.2574 7.03778 19.707 4.169 19.7152 1.53833L19.707 0.728071C19.707 0.460412 19.9152 0.244141 20.18 0.244141H20.2436C20.2498 0.248591 20.2628 0.248592 20.2628 0.248592C26.4776 1.31538 31.5588 5.75654 33.5858 11.6562L33.592 11.6626C33.612 11.7067 33.6166 11.76 33.6166 11.8134C33.6168 11.8769 33.6046 11.9398 33.5806 11.9984C33.5566 12.0571 33.5214 12.1104 33.4769 12.1552C33.4324 12.1999 33.3795 12.2353 33.3214 12.2593C33.2632 12.2832 33.201 12.2953 33.1382 12.2947Z" fill="url(#paint3_linear_526_221)"/>
<path d="M13.23 10.1003L12.4226 12.1442C12.36 12.2895 12.23 12.4064 12.0762 12.4384H12.0328C12.011 12.4467 11.9918 12.4467 11.9918 12.4467L1.53122 12.524C1.40278 12.525 1.27912 12.4747 1.18704 12.3841C1.09495 12.2936 1.04184 12.1699 1.03922 12.04C1.03922 11.9884 1.05282 11.9358 1.06662 11.8921V11.8839C3.01421 5.96663 8.03901 1.43827 14.2394 0.289342H14.253C14.2784 0.28125 14.3022 0.28125 14.3158 0.28125C14.5784 0.28125 14.8002 0.491857 14.8002 0.760325L14.8076 1.57524H14.8002C14.846 4.20894 14.3378 7.08339 13.23 10.1003Z" fill="url(#paint4_linear_526_221)"/>
<path d="M155.811 19.4677C149.101 19.4677 145.544 21.6496 145.544 25.027C145.544 28.4744 148.992 30.612 155.811 30.612C162.624 30.612 166.079 28.4744 166.079 25.027C166.079 21.6496 162.522 19.4677 155.811 19.4677ZM155.811 27.8545C150.938 27.8545 148.465 26.7786 148.465 25.0345C148.465 23.331 151.007 22.2272 155.811 22.2272C160.609 22.2272 163.161 23.331 163.161 25.0345C163.161 26.7784 160.689 27.8545 155.811 27.8545ZM144.067 7.92029H151.087L144.533 13.3528C144.435 13.4394 144.371 13.5634 144.371 13.6949C144.371 13.9478 144.578 14.1511 144.827 14.1511H148.024C148.024 14.1511 148.035 14.1466 148.044 14.1384L155.07 8.32431C155.211 8.24601 155.366 8.2011 155.52 8.2011C155.684 8.2011 155.826 8.23954 155.963 8.31885L162.993 14.1386C162.997 14.1431 163.001 14.1474 163.006 14.1513H166.209C166.459 14.1513 166.668 13.948 166.668 13.6951C166.668 13.5559 166.6 13.4319 166.505 13.353L159.958 7.92049H166.978C166.988 7.92066 166.998 7.91669 167.006 7.90945C167.013 7.90222 167.018 7.8923 167.018 7.88185V5.22226C167.018 5.20202 167.003 5.18281 166.978 5.18281H144.067C144.034 5.18281 144.02 5.20223 144.02 5.22226V7.88165C144.02 7.89905 144.034 7.92029 144.067 7.92029ZM169.173 15.4497H142.121C142.121 15.4497 142.085 15.4645 142.085 15.4904V18.1496C142.085 18.17 142.103 18.1874 142.103 18.1874H166.861C168.262 18.1828 169.42 17.2398 169.618 16.0275C169.633 15.9944 169.636 15.9541 169.636 15.9153C169.636 15.7914 169.586 15.6728 169.5 15.5856C169.413 15.4983 169.295 15.4495 169.173 15.4497ZM189.707 18.8808V21.6496C189.707 21.6642 189.714 21.6753 189.718 21.6826C189.734 21.6899 189.747 21.6973 189.747 21.6973H196.423V23.8166C196.423 23.8386 196.45 23.8588 196.469 23.8588H199.447C199.462 23.8588 199.485 23.8386 199.485 23.8166V4.64101C199.485 4.61997 199.462 4.60156 199.447 4.60156H196.469C196.45 4.60156 196.423 4.61997 196.423 4.64101V18.8348H189.751C189.739 18.8353 189.728 18.8404 189.72 18.8489C189.711 18.8575 189.707 18.8689 189.707 18.8808Z" fill="#0066B2"/>
<path d="M181.796 20.9144C181.796 20.9383 181.818 20.9585 181.836 20.9585H184.818C184.818 20.9585 184.858 20.9383 184.858 20.9144V16.7191H193.046C193.046 16.7191 193.066 16.7191 193.071 16.7055C193.082 16.7001 193.082 16.6871 193.082 16.6788V13.9037C193.082 13.8835 193.071 13.8651 193.071 13.8651H190.14V8.32515C190.14 8.22197 190.231 7.06494 189.127 6.06492C188.256 5.26942 187.226 5.18648 186.828 5.18648H175.682C175.682 5.18648 175.646 5.20853 175.646 5.22876V8.0059C175.646 8.01136 175.646 8.02431 175.651 8.0326C175.664 8.03989 175.669 8.04474 175.669 8.04474H186.801C186.841 8.04474 186.952 8.05182 187.041 8.13012C187.092 8.18171 187.117 8.25434 187.117 8.3472V13.8651H174.489C174.489 13.8651 174.449 13.8837 174.449 13.9037V16.6788C174.449 16.6871 174.456 16.6999 174.463 16.7055C174.467 16.7191 174.481 16.7191 174.481 16.7191H181.796V20.9144ZM57.343 18.1577C63.8958 18.1577 67.9656 15.4388 67.9656 11.0697C67.9656 6.77766 63.802 4.01367 57.343 4.01367C50.8926 4.01367 46.7188 6.77766 46.7188 11.0697C46.7188 15.4388 50.7878 18.1577 57.343 18.1577ZM57.343 7.05948C61.764 7.05948 64.982 8.74353 64.982 11.0697C64.982 13.4485 61.8434 15.1069 57.343 15.1069C52.8484 15.1069 49.7094 13.4485 49.7094 11.0697C49.7094 8.74353 52.9184 7.05948 57.343 7.05948ZM103.967 10.847H99.7894V4.64185C99.7894 4.62081 99.7684 4.6024 99.7684 4.6024H96.773C96.7448 4.6024 96.727 4.62081 96.727 4.64185V22.5001C96.727 22.5258 96.745 22.5443 96.773 22.5443H99.7464C99.7464 22.5443 99.7894 22.5258 99.7894 22.5001V13.7014H103.967C103.992 13.7014 104.011 13.682 104.011 13.6634V10.8856C104.011 10.8674 103.992 10.847 103.967 10.847ZM91.8376 11.8203C91.8376 7.76393 88.9654 4.47919 83.7486 4.47919C78.5364 4.47919 75.6568 7.76393 75.6568 11.8203C75.6568 15.8841 78.5364 19.1685 83.7486 19.1685C88.9652 19.1685 91.8376 15.8841 91.8376 11.8203ZM78.698 11.8203C78.698 9.28613 80.4922 7.23489 83.7484 7.23489C87.0062 7.23489 88.8086 9.28613 88.8086 11.8203C88.8086 14.3617 87.0062 16.4128 83.7484 16.4128C80.4922 16.4128 78.698 14.3615 78.698 11.8203ZM136.989 13.9569H132.93V4.64185C132.93 4.62081 132.906 4.6024 132.886 4.6024H129.913C129.887 4.6024 129.867 4.62081 129.867 4.64185V29.7373C129.867 29.7575 129.887 29.7775 129.913 29.7775H132.886C132.906 29.7775 132.93 29.7573 132.93 29.7373V16.8103H136.971C136.971 16.8103 137.009 16.7899 137.009 16.7723V13.9958C137.009 13.9688 136.989 13.9569 136.989 13.9569ZM70.3988 20.0645H44.2066C44.1644 20.0645 44.1698 20.0977 44.1698 20.0977V22.8406C44.1698 22.8684 44.1808 22.8866 44.2066 22.8866H50.266V29.1783C50.266 29.2153 50.296 29.2153 50.296 29.2153H53.2804C53.3078 29.2153 53.3268 29.2023 53.3268 29.1783V22.8864H61.944V29.1781C61.944 29.2019 61.9658 29.2151 61.9858 29.2151H64.9632C64.9632 29.2151 65.0078 29.2187 65.0078 29.1781V22.8864H68.3722C69.5522 22.8718 70.6262 21.8673 70.8116 20.5871V20.5355C70.8118 20.2796 70.6262 20.0645 70.3988 20.0645ZM100.86 26.4406H82.5652C82.5192 26.4406 82.4152 26.4333 82.3262 26.354C82.2985 26.3275 82.2771 26.2951 82.2634 26.2592C82.2497 26.2232 82.2442 26.1846 82.2472 26.1462V21.5398C82.2472 21.5139 82.2288 21.4957 82.2108 21.4957H79.2308C79.2144 21.4957 79.1944 21.5139 79.1944 21.5398V25.5573C79.1944 27.6233 80.9038 29.2992 82.9964 29.2992H98.6636C99.973 29.2992 101.118 28.2488 101.31 26.9739C101.318 26.9536 101.318 26.9352 101.318 26.9023C101.318 26.8414 101.306 26.7811 101.283 26.7249C101.26 26.6687 101.227 26.6176 101.184 26.5747C101.142 26.5317 101.091 26.4978 101.035 26.4748C100.98 26.4517 100.92 26.4401 100.86 26.4406ZM126.605 22.3951H113.762C113.722 22.3951 113.605 22.3897 113.521 22.3106C113.473 22.2592 113.445 22.1874 113.445 22.1028V16.6327H125.035C125.062 16.6327 125.081 16.6135 125.081 16.5942V13.8962C125.081 13.878 125.062 13.8586 125.035 13.8586H113.445V8.31948L125.772 8.31665C125.772 8.31665 125.812 8.29622 125.812 8.27861V5.5563C125.812 5.52859 125.79 5.51766 125.79 5.51766H110.266V21.5068C110.266 23.5801 111.979 25.256 114.062 25.256H124.404C125.714 25.256 126.856 24.2038 127.058 22.9307C127.063 22.9123 127.063 22.892 127.063 22.859C127.063 22.7362 127.014 22.6185 126.928 22.5316C126.842 22.4447 126.726 22.3957 126.605 22.3951ZM199.341 26.4406H181.043C181.003 26.4406 180.894 26.4333 180.81 26.354C180.752 26.3006 180.726 26.2308 180.726 26.1462V21.5398C180.726 21.5139 180.708 21.4957 180.686 21.4957H177.718C177.718 21.4957 177.677 21.5139 177.677 21.5398V25.5573C177.677 27.6233 179.388 29.2992 181.474 29.2992H197.141C198.45 29.2992 199.595 28.2488 199.793 26.9739C199.8 26.9536 199.8 26.9352 199.8 26.9023C199.799 26.7796 199.751 26.6621 199.665 26.5756C199.579 26.4891 199.463 26.4405 199.341 26.4406Z" fill="#0066B2"/>
</g>
<defs>
<linearGradient id="paint0_linear_526_221" x1="5.02094" y1="0.350352" x2="5.25899" y2="34.4555" gradientUnits="userSpaceOnUse">
<stop stop-color="#014DA1"/>
<stop offset="1" stop-color="#00ADEE"/>
</linearGradient>
<linearGradient id="paint1_linear_526_221" x1="17.2525" y1="0.265598" x2="17.4905" y2="34.3723" gradientUnits="userSpaceOnUse">
<stop stop-color="#014DA1"/>
<stop offset="1" stop-color="#00ADEE"/>
</linearGradient>
<linearGradient id="paint2_linear_526_221" x1="29.4771" y1="0.176655" x2="29.7152" y2="34.2858" gradientUnits="userSpaceOnUse">
<stop stop-color="#014DA1"/>
<stop offset="1" stop-color="#00ADEE"/>
</linearGradient>
<linearGradient id="paint3_linear_526_221" x1="26.6204" y1="0.199213" x2="26.8582" y2="34.2697" gradientUnits="userSpaceOnUse">
<stop stop-color="#014DA1"/>
<stop offset="1" stop-color="#00ADEE"/>
</linearGradient>
<linearGradient id="paint4_linear_526_221" x1="7.87922" y1="0.326144" x2="8.11726" y2="34.4299" gradientUnits="userSpaceOnUse">
<stop stop-color="#014DA1"/>
<stop offset="1" stop-color="#00ADEE"/>
</linearGradient>
<clipPath id="clip0_526_221">
<rect width="200" height="35" fill="white"/>
</clipPath>
</defs>
</svg>
