<svg width="122" height="70" viewBox="0 0 122 70" fill="none" xmlns="http://www.w3.org/2000/svg">
<g clip-path="url(#clip0_526_200)">
<path d="M13.1151 51.3531C10.6403 50.1878 8.60014 49.2465 8.60014 47.3489C8.60014 45.8967 9.76157 44.8414 12.0465 44.8414C12.885 44.8414 13.5803 44.9321 14.2916 45.0682C14.6621 45.1296 15.0624 45.186 15.3899 45.186C17.3871 45.186 18.5156 43.9945 19.2649 41.7253L19.5759 40.7937C19.2566 40.6663 15.9905 39.2292 11.7304 39.2292C4.95848 39.2292 1.37857 43.5849 1.38314 48.1096C1.38314 50.3871 2.09674 52.0441 3.21152 53.3437C4.65245 55.0195 6.6972 56.118 8.6102 57.0509C11.3997 58.4271 13.9192 59.4412 13.9192 61.4767C13.9192 63.2831 12.0579 64.3142 9.56442 64.3142C6.16108 64.3142 3.18179 62.3584 2.8044 62.1215L0.000305176 67.3867C0.496625 67.6686 4.09986 69.9658 10.0429 69.9658C16.361 69.9639 21.1458 66.3227 21.1458 60.7256C21.1458 55.1634 16.7087 53.0967 13.1151 51.3531ZM37.8432 53.9477L49.314 39.8414H41.1423L31.9967 52.0185H31.8595V39.8414H25.1233V69.7247H25.524C28.4342 69.7247 31.9016 68.372 31.9016 63.4976V56.633H32.0438L41.3669 69.3567H49.9356L37.8432 53.9477ZM49.6977 7.83008C47.3218 8.27733 43.8059 10.4338 43.8197 14.2607C43.8261 17.725 46.6567 19.8247 46.6649 24.3696C46.6768 27.79 44.8004 30.0922 42.7689 31.3684C43.6692 31.2857 44.5729 31.2447 45.477 31.2456C47.5551 31.2392 48.8025 31.4363 48.8803 31.4528L59.5203 18.3514C56.5621 13.9142 53.1111 10.4719 49.6977 7.83008Z" fill="#E31838"/>
<path d="M58.6343 43.1944C59.9709 41.1094 60.1447 37.7729 60.2559 34.3768C60.3812 31.2126 61.0399 28.8275 65.2621 28.8114C66.1971 28.8064 67.0918 28.9388 68.7066 28.9338C74.893 28.9072 78.928 26.7676 81.443 25.3672C76.3092 22.0852 68.8127 18.729 59.5194 18.3496C58.9156 20.0717 54.204 33.2083 53.8444 34.2673C53.9025 34.3319 54.7264 35.2603 55.757 37.07C57.2775 39.5546 58.0899 41.6593 58.6343 43.194" fill="#E31838"/>
<path d="M36.158 32.4618C35.6256 32.4618 35.3575 32.1058 35.2862 31.4876C35.2185 30.8658 32.5548 6.45351 32.1573 2.7527C32.1015 2.21105 31.9674 1.22169 31.9674 0.867009C31.9629 0.29649 32.3348 4.76349e-06 32.773 4.76349e-06C34.0323 -0.00320297 40.8985 1.61304 48.1914 6.73716C46.0918 7.32922 42.2882 9.52331 42.3042 14.0646C42.3225 18.0756 45.1865 20.2885 45.2034 24.3243C45.2231 30.874 37.7197 32.4586 36.158 32.4618ZM59.2431 44.9317C59.3575 45.2415 59.465 45.5017 59.5757 45.6773C59.7413 45.9673 59.9581 46.0965 60.2325 46.0965C60.4 46.0965 60.6067 46.0324 60.8364 45.9274C61.399 45.669 83.6136 35.297 86.9638 33.7454C87.4556 33.5135 88.3705 33.1011 88.6815 32.9219C88.9908 32.7432 89.133 32.476 89.133 32.2093C89.1303 32.0552 89.0876 31.9044 89.0091 31.7717C88.5919 31.0935 86.4364 28.8069 82.841 26.3071C79.9888 27.8784 75.5334 30.3195 68.9037 30.3443C67.2757 30.3479 66.9134 30.232 65.805 30.2435C62.5687 30.2535 61.7631 31.6374 61.6405 34.485C61.6209 35.0216 61.619 35.7443 61.5811 36.5398C61.4804 39.0876 61.1822 42.5909 59.2436 44.9312M88.7186 48.2686H94.8734V45.746H74.8838V48.2686H81.0748L74.1309 54.8074H78.8416L84.8889 49.1636L90.1595 54.0513C90.7121 54.5654 91.3145 54.812 92.18 54.812L95.7466 54.8074L88.7186 48.2686ZM84.8875 67.4275C81.519 67.4275 79.246 65.787 79.246 63.7634C79.246 61.7347 81.5194 60.0974 84.8875 60.0974C88.2561 60.0974 90.5309 61.7347 90.5309 63.7634C90.5309 65.787 88.2561 67.4275 84.8875 67.4275ZM96.9337 56.7655H72.84V59.2964H78.5442C76.6253 60.4099 75.5828 62.0692 75.5828 63.9174C75.5828 67.2786 78.9797 70.0001 84.8875 70.0001C90.794 70.0001 94.1923 67.2786 94.1923 63.9174C94.1923 62.0692 93.1553 60.4104 91.2327 59.2964H96.9342L96.9337 56.7655ZM117.989 45.7455V58.1315H112.445V60.6587H117.989V62.6888H121.585V45.7455H117.989Z" fill="#F47725"/>
<path d="M116.61 54.2484H114.572V45.7461H102.362V48.2701H110.978V54.2484H100.531V56.7743H106.973V61.4548H110.57V56.7743H116.61M106.974 66.8278V62.2911H103.379V66.7018C103.379 68.1686 104.568 69.355 106.025 69.355H122V66.8278H106.974Z" fill="#F47725"/>
</g>
<defs>
<clipPath id="clip0_526_200">
<rect width="122" height="70" fill="white"/>
</clipPath>
</defs>
</svg>
