<svg width="204" height="36" viewBox="0 0 204 36" fill="none" xmlns="http://www.w3.org/2000/svg">
<path d="M58.8281 17.2236C58.8399 17.4788 58.8478 17.7326 58.8491 17.985V17.9995C58.8491 26.0645 53.376 32.8512 45.9423 34.8422C44.3559 35.2648 42.7181 35.4631 41.0767 35.4313C32.2583 35.2577 25.0468 28.5314 24.1039 19.9168C24.0644 19.5473 24.0368 19.1725 24.021 18.7951C24.0088 18.5423 24.0018 18.2894 24 18.0363V17.9995C24 8.37232 31.8006 0.566406 41.4239 0.566406C49.6322 0.566406 56.5123 6.24331 58.3612 13.8835C58.619 14.9605 58.7794 16.077 58.8281 17.2236ZM50.6211 9.25073C49.6019 8.96801 48.8485 8.72605 48.6249 8.2579C48.5197 8.03567 48.5841 7.81343 48.7301 7.70823C48.8866 7.59382 49.0983 7.63195 49.3455 7.75294C49.7111 7.92915 50.1569 8.19216 50.5001 8.23424C51.4995 8.35522 51.3167 6.82586 49.5217 5.93822C48.4658 5.41353 47.4322 5.19787 46.033 5.25047C45.5516 5.27525 45.0689 5.25324 44.5918 5.18473C43.9369 5.08347 43.136 4.806 42.5956 4.69291C42.1813 4.60612 41.946 4.61664 41.8473 4.75471C41.7566 4.8849 41.7855 5.0782 42.038 5.39644C42.543 6.03422 43.3386 6.74301 42.9322 8.40124C41.9236 12.5133 43.3044 14.3951 44.7101 14.7041C45.4991 14.879 46.225 14.6936 46.6682 14.2333C47.089 13.7928 47.2704 13.0472 46.8654 12.416C46.2447 11.4481 46.0251 10.6065 46.5801 10.2567C47.0863 9.93718 47.807 10.2317 48.3553 11.4573C49.2311 13.4219 50.3712 13.9427 51.5113 12.5462C52.445 11.4021 52.4082 9.74386 50.6211 9.25073ZM47.4493 19.9825C42.7231 17.15 40.3798 16.0296 38.4664 14.6633C35.2973 12.4028 34.7962 10.7183 34.7002 9.5453C34.5267 7.44786 36.1139 5.55951 37.7287 4.66924C37.8536 4.59297 38.0667 4.41939 37.9733 4.18006C37.8799 3.93941 37.5906 3.98543 37.4828 4.0091C33.8705 4.77575 30.3594 7.95939 30.9051 12.2069C31.1221 13.8901 32.1925 16.7331 37.7327 19.997C39.6223 21.1095 41.2543 21.9524 43.8146 23.42C47.2836 25.4043 48.88 27.9594 46.7313 30.7485C46.5682 30.9432 46.4288 31.1444 46.4867 31.3206C46.5538 31.5244 46.8207 31.5599 47.0719 31.4468C48.7196 30.688 50.0819 29.5479 50.7302 28.4907C51.8717 26.6286 52.4411 22.9781 47.4493 19.9825ZM41.921 31.2956C41.3825 31.1448 40.8537 30.9613 40.3377 30.7459C39.6684 30.454 39.0648 30.1344 38.7991 29.8701C38.6242 29.6952 38.5966 29.4966 38.736 29.2928C39.5355 28.1448 39.7604 27.6898 39.984 27.1493C40.4574 26.0053 39.9892 25.8948 39.2528 26.1065C38.4533 26.3354 37.8195 26.5694 37.329 26.7535C36.6412 27.01 36.2165 27.1678 35.9666 27.0455C35.7049 26.9192 35.6576 26.4655 35.5629 25.7147C35.4971 25.1795 35.3854 24.5706 35.242 23.9749C34.9462 22.7822 34.4359 23.011 34.0138 23.4989C33.4891 24.1367 33.1998 24.9257 32.9828 25.3399C32.8658 25.5608 32.733 25.6345 32.5699 25.599C32.2057 25.5214 31.7257 24.9585 31.2023 24.2892C30.437 23.3108 30.0951 22.5587 29.6966 22.5126C28.8498 22.414 29.2272 24.4168 30.0214 26.0684C30.8908 27.9162 32.2771 29.4724 34.0125 30.5487C36.3085 32.0031 39.7039 32.5317 41.7895 32.2384C42.4483 32.1451 42.5785 31.4849 41.921 31.2956ZM82.4272 21.7683V9.5716C82.4272 9.17315 82.3812 8.8444 82.3102 8.58666C82.2168 8.32891 82.0525 8.09353 81.8408 7.83579C81.7 7.67141 81.6777 7.50835 81.7474 7.36632C81.7836 7.30611 81.8356 7.25691 81.8977 7.22401C81.9598 7.19111 82.0296 7.17575 82.0998 7.17959H86.1106V21.7683H82.4272ZM71.0748 9.92402C71.0748 9.52557 71.0511 9.22049 71.0051 8.98511C70.9341 8.72736 70.7933 8.49329 70.5829 8.23424C70.4422 8.07117 70.3949 7.90679 70.4646 7.76609C70.4953 7.69953 70.5454 7.64375 70.6082 7.606C70.6711 7.56824 70.7438 7.55026 70.817 7.55438H74.8751V10.6749C74.8751 11.4481 75.0395 12.128 75.3906 12.7381C75.743 13.372 76.1888 13.9111 76.7043 14.3806C77.2671 14.85 77.8773 15.2485 78.5572 15.5996C79.2152 15.9386 79.8974 16.2287 80.5981 16.4675L79.5895 18.3677C79.4251 18.6491 79.074 18.7201 78.5111 18.6018C77.9247 18.4847 77.1264 18.11 76.1178 17.4761C75.5313 17.125 74.9922 16.7029 74.453 16.2571C73.9609 15.8418 73.5199 15.3695 73.1393 14.8501C72.2752 16.0692 71.1937 17.1186 69.9491 17.9456C69.5967 18.1797 69.2219 18.3914 68.8471 18.6018C68.4474 18.8135 68.0963 19.0015 67.7438 19.1186C67.3927 19.2593 67.1113 19.329 66.8523 19.3527C66.6182 19.3763 66.4538 19.329 66.3841 19.1883L65.3045 17.1487C66.079 16.8436 66.8299 16.4912 67.5334 16.0691C68.2133 15.6706 68.8235 15.2012 69.3626 14.6857C69.9018 14.1689 70.3015 13.6061 70.629 12.9735C70.934 12.3397 71.0748 11.6598 71.0748 10.909V9.92402ZM73.0446 28.9693C72.3411 28.9693 71.7323 28.9233 71.2391 28.8523C70.746 28.7826 70.3239 28.6182 70.0425 28.4065C69.7303 28.1958 69.4924 27.8921 69.3626 27.5386C69.2219 27.1875 69.1509 26.6944 69.1509 26.1079V22.4732C69.1509 22.2378 69.1049 22.0274 69.0339 21.8393C68.9642 21.6513 68.8235 21.4646 68.6591 21.2528C68.5184 21.0885 68.471 20.9241 68.542 20.7834C68.6117 20.6427 68.7288 20.573 68.8932 20.573H72.8816V25.3583C72.8816 25.7804 72.9513 26.0382 73.1393 26.1552C73.3037 26.2722 73.5614 26.3196 73.9599 26.3196H86.509V28.9693H73.0446ZM94.2729 8.91541C94.2729 8.51696 94.2492 8.18821 94.2032 7.93046C94.1123 7.65499 93.9684 7.39993 93.7797 7.17959C93.6167 7.01522 93.593 6.85084 93.6627 6.71013C93.6989 6.64977 93.7508 6.60039 93.8128 6.56727C93.8749 6.53414 93.9448 6.51852 94.0151 6.52209H98.0259V9.14948H103.35V11.7295H100.887C101.24 12.128 101.545 12.5974 101.755 13.0906C101.967 13.6061 102.06 14.1689 102.06 14.7554C102.06 15.4826 101.92 16.1624 101.662 16.7963C101.404 17.4301 101.004 17.9929 100.489 18.4611C99.9378 18.9551 99.291 19.3306 98.5887 19.5644C97.7479 19.8364 96.8687 19.971 95.985 19.9628C95.1089 19.973 94.2372 19.8383 93.405 19.5644C92.7027 19.3306 92.0559 18.9551 91.5048 18.4611C90.9942 17.9959 90.587 17.4287 90.3094 16.7963C90.0439 16.1487 89.9081 15.4553 89.9097 14.7554C89.9097 14.1452 90.0043 13.5824 90.2147 13.0906C90.4028 12.5974 90.6842 12.128 91.0366 11.7295H88.5736V9.14948H94.2729V8.91541ZM105.251 22.0971V9.5716C105.255 9.23958 105.215 8.90845 105.134 8.58666C105.063 8.35258 104.898 8.09353 104.688 7.83579C104.523 7.67141 104.5 7.50835 104.571 7.36632C104.607 7.30611 104.658 7.25689 104.72 7.22397C104.782 7.19105 104.852 7.1757 104.922 7.17959H108.933V12.7145H111.607V15.3655H108.933V22.0971H105.251ZM109.214 26.3196V28.9693H96.1021C95.3985 28.9693 94.7884 28.9233 94.2965 28.8286C93.8425 28.7785 93.4077 28.6177 93.0302 28.3605C92.7014 28.1488 92.4674 27.8437 92.303 27.4452C92.1623 27.0705 92.0913 26.5773 92.0913 25.9908V23.4108C92.0913 23.1767 92.0452 22.965 91.9742 22.7769C91.9045 22.5902 91.7625 22.4022 91.5994 22.1918C91.4587 22.0274 91.4114 21.863 91.4811 21.7223C91.5118 21.6557 91.5619 21.6 91.6247 21.5622C91.6876 21.5244 91.7603 21.5065 91.8335 21.5106H95.8206V25.3583C95.8206 25.7804 95.9153 26.0382 96.0797 26.1552C96.2427 26.2722 96.5018 26.3196 96.9003 26.3196H109.214ZM95.985 17.3828C96.8056 17.3828 97.4394 17.125 97.8615 16.5622C98.331 16.0217 98.5414 15.3892 98.5414 14.6383C98.5414 13.8414 98.331 13.1603 97.8615 12.6211C97.4394 12.082 96.8056 11.8242 95.985 11.8242C95.1644 11.8242 94.5306 12.082 94.0848 12.6211C93.639 13.1603 93.4286 13.8414 93.4286 14.6383C93.4286 15.3892 93.639 16.0217 94.0848 16.5622C94.5306 17.125 95.1644 17.3828 95.985 17.3828ZM114.538 7.64906H131.897V10.2054H118.714V12.0346H131.826V14.591H118.714V15.5536C118.714 15.9047 118.785 16.1401 118.925 16.2571C119.066 16.3741 119.324 16.4438 119.676 16.4438H132.202V19.0252H118.808C117.447 19.0252 116.462 18.7662 115.829 18.2743C115.22 17.7812 114.915 16.9133 114.915 15.6943V10.0647C114.919 9.73271 114.879 9.40158 114.798 9.07978C114.703 8.82073 114.539 8.58666 114.328 8.32891C114.187 8.16454 114.14 8.00016 114.211 7.85945C114.257 7.71875 114.375 7.64906 114.538 7.64906ZM134.617 20.7597V23.4108H125.352V29.2521H121.553V23.4108H112.264V20.7597H134.617ZM136.518 10.7209V8.07117H149.513V10.7209H144.985V14.6147C144.985 15.9047 145.219 17.0303 145.665 18.039C146.128 19.0737 146.78 20.0126 147.589 20.8071C148.034 21.2292 148.526 21.6276 149.067 22.0274C149.582 22.4258 150.121 22.7769 150.662 23.082L149.301 25.1703C149.23 25.2873 149.067 25.3346 148.855 25.2873C148.645 25.2636 148.363 25.1466 148.058 24.9822C147.753 24.7942 147.401 24.5364 147.002 24.255C146.612 23.9185 146.229 23.5744 145.853 23.2227C145.593 22.9816 145.35 22.7233 145.126 22.4495C144.87 22.163 144.628 21.8655 144.398 21.5579C144.151 21.2583 143.931 20.9365 143.742 20.5967C143.553 20.3012 143.396 19.9864 143.273 19.6577C143.116 20.0288 142.936 20.3894 142.734 20.7374C142.522 21.1121 142.264 21.4869 142.006 21.863C141.725 22.2141 141.444 22.5665 141.139 22.919C140.843 23.2487 140.53 23.5617 140.2 23.8566C139.332 24.6535 138.604 25.24 137.996 25.6397C137.385 26.0382 136.987 26.1079 136.823 25.8975L135.18 23.8802C135.761 23.5098 136.317 23.1022 136.845 22.6599C137.362 22.2615 137.854 21.8157 138.347 21.3239C139.253 20.4538 139.986 19.4188 140.505 18.2743C140.95 17.2184 141.162 15.9994 141.162 14.6383V10.7209H136.518ZM151.787 29.2521V9.59527C151.792 9.26325 151.752 8.93211 151.67 8.61032C151.599 8.37494 151.435 8.1172 151.225 7.85945C151.084 7.69508 151.037 7.53071 151.106 7.39C151.137 7.32357 151.187 7.26796 151.25 7.23043C151.313 7.1929 151.386 7.17518 151.459 7.17959H155.47V14.591H158.519V17.2894H155.47V29.2521H151.787ZM179.09 25.0295C179.09 25.7567 178.902 26.4129 178.503 26.9994C178.105 27.5859 177.518 28.0554 176.767 28.4538C176.017 28.8523 175.103 29.1574 174.023 29.3691C172.945 29.5795 171.724 29.6742 170.365 29.6742C167.597 29.6742 165.439 29.2744 163.915 28.4538C162.389 27.6569 161.616 26.5076 161.616 25.0295C161.616 24.3023 161.803 23.6448 162.201 23.0597C162.601 22.4732 163.164 21.98 163.915 21.5816C164.664 21.1831 165.579 20.9017 166.658 20.69C167.737 20.4783 168.98 20.3849 170.365 20.3849C171.724 20.3849 172.945 20.4783 174.023 20.69C175.103 20.9017 176.017 21.1831 176.767 21.5816C177.518 21.98 178.105 22.4732 178.503 23.0597C178.902 23.6448 179.09 24.3023 179.09 25.0295ZM161.803 10.0647V7.41367H178.902V10.0647H172.428C172.616 10.4158 172.945 10.7683 173.414 11.1194C173.906 11.4718 174.492 11.8242 175.172 12.128C175.854 12.4567 176.603 12.7618 177.449 13.0196C178.293 13.2773 179.184 13.489 180.122 13.6534L179.278 15.764C179.184 15.9757 178.785 16.0454 178.105 15.9284C177.425 15.835 176.393 15.5536 175.032 15.0841C174.096 14.7729 173.193 14.3722 172.335 13.8875C171.56 13.4653 170.856 13.0196 170.27 12.5277C169.744 13.0068 169.17 13.4311 168.558 13.7941C167.925 14.1925 167.151 14.5673 166.259 14.9198C165.692 15.154 165.112 15.3577 164.523 15.5299C163.937 15.6943 163.421 15.835 162.952 15.9284C162.482 16.0217 162.084 16.0691 161.779 16.0454C161.474 16.0217 161.287 15.952 161.216 15.7877L160.348 13.7704C161.266 13.6192 162.174 13.4155 163.069 13.1603C163.937 12.9025 164.711 12.6211 165.415 12.2924C166.045 12.0057 166.643 11.6521 167.198 11.2377C167.69 10.8616 168.019 10.4632 168.207 10.0647H161.803ZM181.529 16.9606V19.4934H159.175V16.9606H181.529ZM175.408 25.0295C175.408 24.2787 175.008 23.7159 174.211 23.3871C173.39 23.0597 172.124 22.8953 170.365 22.8953C168.605 22.8953 167.339 23.0597 166.517 23.3871C165.696 23.7159 165.298 24.2787 165.298 25.0295C165.298 25.8264 165.696 26.3893 166.517 26.718C167.339 27.0468 168.605 27.2112 170.365 27.2112C172.124 27.2112 173.39 27.0468 174.211 26.718C175.008 26.3893 175.408 25.8264 175.408 25.0295ZM193.89 10.909C193.914 10.5802 193.726 10.4158 193.327 10.4158H184.508V7.88313H194.641C195.275 7.88313 195.767 7.93046 196.165 8.02383C196.565 8.09352 196.846 8.23423 197.057 8.44595C197.268 8.65766 197.385 8.93908 197.433 9.29019C197.479 9.66628 197.479 10.1108 197.433 10.6276L197.08 15.3655H199.05V17.2184C198.699 17.4761 198.253 17.6405 197.667 17.7115C197.08 17.7812 196.401 17.8286 195.602 17.8286H191.99V21.4869H188.425V17.8286H182.655V15.3655H193.609L193.89 10.909ZM200.154 23.2701V21.4646H194.712V19.0476H200.154V9.61894C200.154 9.19683 200.106 8.86807 200.013 8.61032C199.942 8.35258 199.778 8.1172 199.567 7.88313C199.426 7.67141 199.403 7.50835 199.474 7.36632C199.51 7.30611 199.561 7.25689 199.623 7.22397C199.685 7.19105 199.755 7.1757 199.825 7.17959H203.766V23.2701H200.154ZM186.197 24.5838C186.197 24.3497 186.15 24.138 186.08 23.9499C186.009 23.7632 185.869 23.5751 185.704 23.3634C185.564 23.2004 185.516 23.036 185.587 22.8953C185.618 22.8288 185.668 22.7731 185.73 22.7353C185.793 22.6976 185.865 22.6795 185.938 22.6836H189.927V25.6857C189.922 25.7786 189.938 25.8714 189.974 25.9569C190.011 26.0424 190.067 26.1184 190.137 26.1789C190.255 26.2959 190.442 26.3669 190.654 26.3669H204V28.9693H189.012C188.098 28.9693 187.416 28.7116 186.925 28.2198C186.431 27.7266 186.197 27.0941 186.197 26.2959V24.5838Z" fill="#0046FF"/>
</svg>
