<svg width="7" height="12" viewBox="0 0 7 12" fill="none" xmlns="http://www.w3.org/2000/svg">
<path fill-rule="evenodd" clip-rule="evenodd" d="M0.233209 0.175314C0.358917 0.0627561 0.52566 0 0.69902 0C0.87238 0 1.03912 0.0627561 1.16483 0.175314L6.61394 5.13369C6.73591 5.24299 6.83304 5.37453 6.89941 5.52033C6.96578 5.66613 7 5.82313 7 5.98179C7 6.14044 6.96578 6.29745 6.89941 6.44324C6.83304 6.58904 6.73591 6.72059 6.61394 6.82988L1.12538 11.8249C0.870836 12.0559 0.458478 12.0589 0.200119 11.8309C0.137568 11.7765 0.0875282 11.7107 0.0531054 11.6374C0.0186825 11.564 0.000611782 11.4848 1.52588e-05 11.4047C-0.000581741 11.3245 0.0163083 11.2451 0.0496364 11.1713C0.0829644 11.0975 0.132019 11.031 0.193755 10.9759L5.2165 6.40568C5.27754 6.35103 5.32615 6.28524 5.35936 6.21231C5.39257 6.13939 5.4097 6.06085 5.4097 5.98149C5.4097 5.90212 5.39257 5.82359 5.35936 5.75066C5.32615 5.67773 5.27754 5.61194 5.2165 5.55729L0.233845 1.02311C0.172825 0.968511 0.124232 0.90277 0.0910254 0.829894C0.0578189 0.757017 0.0406942 0.67853 0.0406942 0.599212C0.0406942 0.519895 0.0578189 0.441408 0.0910254 0.368531C0.124232 0.295654 0.172189 0.229914 0.233209 0.175314Z" fill="white"/>
</svg>
