<svg width="7" height="12" viewBox="0 0 7 12" fill="none" xmlns="http://www.w3.org/2000/svg">
<path fill-rule="evenodd" clip-rule="evenodd" d="M6.76679 0.175314C6.64108 0.0627561 6.47434 0 6.30098 0C6.12762 0 5.96088 0.0627561 5.83517 0.175314L0.386062 5.13369C0.264086 5.24299 0.166961 5.37453 0.100593 5.52033C0.0342246 5.66613 0 5.82313 0 5.98179C0 6.14044 0.0342246 6.29745 0.100593 6.44324C0.166961 6.58904 0.264086 6.72059 0.386062 6.82988L5.87462 11.8249C6.12916 12.0559 6.54152 12.0589 6.79988 11.8309C6.86243 11.7765 6.91247 11.7107 6.94689 11.6374C6.98132 11.564 6.99939 11.4848 6.99998 11.4047C7.00058 11.3245 6.98369 11.2451 6.95036 11.1713C6.91704 11.0975 6.86798 11.031 6.80625 10.9759L1.7835 6.40568C1.72246 6.35103 1.67385 6.28524 1.64064 6.21231C1.60743 6.13939 1.5903 6.06085 1.5903 5.98149C1.5903 5.90212 1.60743 5.82359 1.64064 5.75066C1.67385 5.67773 1.72246 5.61194 1.7835 5.55729L6.76616 1.02311C6.82718 0.968511 6.87577 0.90277 6.90897 0.829894C6.94218 0.757017 6.95931 0.67853 6.95931 0.599212C6.95931 0.519895 6.94218 0.441408 6.90897 0.368531C6.87577 0.295654 6.82781 0.229914 6.76679 0.175314Z" fill="white"/>
</svg>
