<svg width="14" height="14" viewBox="0 0 14 14" fill="none" xmlns="http://www.w3.org/2000/svg">
<path d="M9.77989 7.15489L5.40489 11.5299C5.38456 11.5502 5.36044 11.5663 5.33388 11.5773C5.30733 11.5883 5.27886 11.594 5.25012 11.594C5.22138 11.594 5.19292 11.5883 5.16636 11.5773C5.13981 11.5663 5.11568 11.5502 5.09536 11.5299C5.07503 11.5096 5.05891 11.4854 5.04791 11.4589C5.03691 11.4323 5.03125 11.4039 5.03125 11.3751C5.03125 11.3464 5.03691 11.3179 5.04791 11.2914C5.05891 11.2648 5.07503 11.2407 5.09536 11.2204L9.31559 7.00012L5.09536 2.77989C5.05431 2.73884 5.03125 2.68317 5.03125 2.62512C5.03125 2.56707 5.05431 2.5114 5.09536 2.47036C5.1364 2.42931 5.19207 2.40625 5.25012 2.40625C5.30817 2.40625 5.36384 2.42931 5.40489 2.47036L9.77989 6.84536C9.80023 6.86567 9.81636 6.8898 9.82737 6.91635C9.83838 6.94291 9.84404 6.97137 9.84404 7.00012C9.84404 7.02887 9.83838 7.05733 9.82737 7.08389C9.81636 7.11045 9.80023 7.13457 9.77989 7.15489Z" fill="white"/>
</svg>
