<svg width="41" height="50" viewBox="0 0 41 50" fill="none" xmlns="http://www.w3.org/2000/svg">
<path d="M20.5 14C18.8597 14 17.2912 14.6339 16.1377 15.7549C14.9849 16.8752 14.3408 18.39 14.3408 19.9648C14.3409 21.1394 14.6992 22.2894 15.373 23.2695C16.0472 24.25 17.008 25.0176 18.1357 25.4717C19.2637 25.9257 20.5063 26.0451 21.7051 25.8135C22.9037 25.5818 24.0023 25.0104 24.8623 24.1748C25.7221 23.3392 26.306 22.2769 26.542 21.124C26.7779 19.9715 26.6566 18.7765 26.1934 17.6895C25.7299 16.602 24.9429 15.6687 23.9297 15.0107C22.9163 14.3527 21.7228 14 20.5 14ZM40.25 19.9648C40.2499 28.1335 35.7918 35.2388 31.335 40.3125C26.8661 45.3999 22.3067 48.5497 21.9121 48.8174L21.9111 48.8164C21.4953 49.099 21.0031 49.25 20.5 49.25C19.9967 49.25 19.5038 49.0993 19.0879 48.8164C18.6913 48.5474 14.1328 45.3986 9.66504 40.3125C5.20818 35.2388 0.750136 28.1335 0.75 19.9648V19.9639L0.756836 19.4863C0.888152 14.5587 2.95987 9.86378 6.54883 6.37598C10.2527 2.77668 15.2701 0.755803 20.499 0.75H20.501L20.9902 0.756836C26.042 0.883986 30.863 2.88909 34.4512 6.37598C38.1558 9.97622 40.244 14.8629 40.25 19.9639V19.9648Z" fill="#014DA1" stroke="white" stroke-width="1.5"/>
<ellipse cx="21" cy="20.5" rx="8.5" ry="8" fill="white"/>
</svg>
